# xmcd
#
# Track frame offsets:
#	150
#	13551
#	31029
#	46513
#	60638
#	79673
#	97105
#	110370
#	127765
#	143031
#	156624
#	175444
#	204169
#
# Disc length: 2737 seconds
#
# Revision: 1
# Processed by: cddbd v1.5.2PL0 Copyright (c) Steve Scherf et al.
# Submitted via: audiograbber 1.83.01
#
DISCID=9d0aaf0d
DTITLE=Sawyer Brown - CB20529
DYEAR=2005
DGENRE=Country
TTITLE0=The Dirt Road w/ Vocals
TTITLE1=The Walk w/ Vocals
TTITLE2=Some Girls Do w/ Vocals
TTITLE3=Thank God for You w/ Vocals
TTITLE4=I Don't Believe in Goodbye w/ Vocals
TTITLE5=Treat Her Right w/ Vocals
TTITLE6=The Dirt Road
TTITLE7=The Walk
TTITLE8=Some Girls Do
TTITLE9=Thank God For You
TTITLE10=I Don't Believe In Goodbye
TTITLE11=Treat Her Right
TTITLE12=Data
EXTD=Chartbuster Artist Series 6+6
EXTT0=
EXTT1=
EXTT2=
EXTT3=
EXTT4=
EXTT5=
EXTT6=
EXTT7=
EXTT8=
EXTT9=
EXTT10=
EXTT11=
EXTT12=
PLAYORDER=
